<?xml version="1.0" encoding="utf-8"?>
<!-- Generator: Adobe Illustrator 21.1.0, SVG Export Plug-In . SVG Version: 6.00 Build 0)  -->
<svg version="1.1" id="Layer_1" xmlns="http://www.w3.org/2000/svg" xmlns:xlink="http://www.w3.org/1999/xlink" x="0px" y="0px"
	 viewBox="0 0 130.333 151.068" style="enable-background:new 0 0 130.333 151.068;" xml:space="preserve">
<style type="text/css">
	.st0{fill:#010101;}
	.st1{fill:#00254A;}
	.st2{fill:#3A84B6;}
	.st3{fill:#2E953E;}
</style>
<rect y="126.511" class="st0" width="130.333" height="1"/>
<g>
	<path class="st1" d="M117.695,54.204h3.548l8.195,18.107h-3.355l-2.373-5.468h-8.841l-2.476,5.468h-3.229L117.695,54.204z
		 M122.854,64.881l-3.479-7.991l-3.62,7.991H122.854z"/>
	<g>
		<path class="st1" d="M113.041,80.543c-0.321-0.601-0.487-1.191-0.487-1.746c0-1.167,0.494-2.141,1.485-2.919
			c0.981-0.772,2.296-1.157,3.952-1.157c1.566,0,2.793,0.355,3.68,1.078c0.879,0.72,1.316,1.581,1.316,2.576
			c0,1.165-0.456,2.181-1.361,3.061c-0.536,0.506-1.425,1.096-2.673,1.768l4.122,3.93c0.252-0.66,0.427-1.152,0.526-1.471
			c0.106-0.33,0.207-0.783,0.308-1.375h2.7c-0.169,1.169-0.52,2.277-1.045,3.346c-0.519,1.056-0.78,1.491-0.78,1.276l3.956,3.849
			h-3.517l-2.124-2.014c-0.835,0.714-1.607,1.239-2.304,1.569c-1.219,0.583-2.632,0.87-4.217,0.87c-2.347,0-4.057-0.501-5.125-1.509
			c-1.059-1.013-1.601-2.148-1.601-3.406c0-1.374,0.52-2.505,1.559-3.418c0.636-0.552,1.818-1.244,3.554-2.087
			C114.014,81.892,113.372,81.142,113.041,80.543 M119.721,90.661c0.819-0.416,1.454-0.89,1.891-1.402l-5.114-4.979
			c-1.435,0.767-2.361,1.357-2.806,1.767c-0.678,0.615-1.011,1.367-1.011,2.256c0,0.957,0.434,1.699,1.307,2.212
			c0.878,0.519,1.813,0.771,2.81,0.771C117.928,91.284,118.912,91.075,119.721,90.661 M119.507,80.438
			c0.605-0.564,0.899-1.181,0.899-1.868c0-0.526-0.213-0.993-0.655-1.374c-0.438-0.381-1.038-0.58-1.788-0.58
			c-1.138,0-1.928,0.306-2.362,0.91c-0.232,0.312-0.341,0.646-0.341,1.014c0,0.504,0.17,0.988,0.515,1.443
			c0.349,0.461,0.914,1.054,1.727,1.795C118.469,81.227,119.136,80.78,119.507,80.438"/>
		<path class="st1" d="M108.472,96.604h4.352l6.483,15.312l6.497-15.312h4.33v18.106h-2.889v-10.692
			c0-0.369,0.024-0.979,0.066-1.838c0.032-0.853,0.055-1.771,0.055-2.745l-6.56,15.275h-3.044l-6.526-15.275v0.552
			c0,0.449,0.024,1.131,0.058,2.04c0.038,0.906,0.064,1.57,0.064,1.991v10.692h-2.885V96.604z"/>
	</g>
	<polygon class="st1" points="68.277,0 0.199,114.871 15.941,114.871 71.311,17.439 71.311,114.871 83.655,114.871 83.655,0 	"/>
	<polygon class="st2" points="66.595,33.227 54.174,55.06 54.174,114.871 66.595,114.871 	"/>
	<polygon class="st2" points="87.709,33.227 100.126,55.06 100.126,114.871 87.709,114.871 	"/>
</g>
<g>
	<path d="M42.904,140.315h-3.471v-1.782h8.88v1.782h-3.47v9.161h-1.938V140.315z"/>
	<path d="M52.955,138.454h1.782l4.815,11.021H57.52l-1.11-2.642h-5.175l-1.126,2.642h-1.97L52.955,138.454z M55.707,145.129
		l-1.892-4.377l-1.876,4.377H55.707z"/>
	<path d="M64.802,143.91l-3.83-5.378h2.267l2.72,3.924l2.736-3.924h2.204l-3.814,5.346l3.971,5.597h-2.267l-2.876-4.143
		l-2.892,4.143h-2.204L64.802,143.91z"/>
	<path d="M77.24,138.454h1.782l4.815,11.021h-2.032l-1.11-2.642H75.52l-1.126,2.642h-1.97L77.24,138.454z M79.991,145.129
		l-1.892-4.377l-1.876,4.377H79.991z"/>
	<path d="M85.539,138.532h1.782l5.862,7.566v-7.566h1.892v10.943h-1.61l-6.034-7.785v7.785h-1.892V138.532z"/>
	<path d="M97.537,138.532h4.08c3.439,0,5.815,2.361,5.815,5.44v0.031c0,3.08-2.376,5.471-5.815,5.471h-4.08V138.532z
		 M101.618,147.724c2.298,0,3.799-1.548,3.799-3.689v-0.031c0-2.142-1.501-3.721-3.799-3.721H99.46v7.441H101.618z"/>
	<g>
		<path d="M23.991,143.173c-0.944,0-1.688-0.738-1.688-1.697c0-0.894,0.745-1.637,1.688-1.637c0.905,0,1.646,0.744,1.646,1.637
			C25.637,142.436,24.896,143.173,23.991,143.173z"/>
		<path d="M23.991,148.471c-0.944,0-1.688-0.74-1.688-1.696c0-0.901,0.745-1.639,1.688-1.639c0.905,0,1.646,0.738,1.646,1.639
			C25.637,147.732,24.896,148.471,23.991,148.471z"/>
		<path d="M28.5,145.844c-0.9,0-1.718-0.775-1.718-1.717c0-0.896,0.817-1.712,1.718-1.712c0.944,0,1.719,0.816,1.719,1.712
			C30.218,145.07,29.443,145.844,28.5,145.844z"/>
		<path d="M28.5,140.582c-0.902,0-1.648-0.744-1.648-1.698c0-0.9,0.746-1.691,1.648-1.691c0.949,0,1.694,0.791,1.694,1.691
			C30.193,139.839,29.449,140.582,28.5,140.582z"/>
		<path d="M28.5,151.068c-0.902,0-1.648-0.739-1.648-1.698c0-0.898,0.746-1.638,1.648-1.638c0.949,0,1.694,0.74,1.694,1.638
			C30.193,150.329,29.449,151.068,28.5,151.068z"/>
		<path d="M33.047,143.173c-0.898,0-1.636-0.738-1.636-1.697c0-0.894,0.738-1.637,1.636-1.637c0.962,0,1.705,0.744,1.705,1.637
			C34.751,142.436,34.008,143.173,33.047,143.173z"/>
		<path d="M33.047,148.471c-0.898,0-1.636-0.74-1.636-1.696c0-0.901,0.738-1.639,1.636-1.639c0.962,0,1.705,0.738,1.705,1.639
			C34.751,147.732,34.008,148.471,33.047,148.471z"/>
	</g>
</g>
<circle class="st3" cx="80.101" cy="72.312" r="0"/>
</svg>
